<svg xmlns="http://www.w3.org/2000/svg" width="348" height="356" fill="none" viewBox="0 0 348 356">
  <path fill="#000" fill-rule="evenodd" d="M124.803 2.034c-20.225 3.559-39.374 11.336-57.58 23.383-28.797 19.055-48.784 45.512-60.007 79.429C1.903 120.903-.014 133.287 0 151.451c.017 22.174 4.266 44.531 8.617 45.347 2.204.413 2.096-.937-1.347-16.847-7.163-33.101-.856-71.261 16.91-102.31 19.212-33.58 53.128-59.03 91.622-68.752C170.319-4.88 229.458 14.808 265.429 58.7c2.926 3.569 5.793 4.278 5.793 1.43 0-2.602-11.642-15.725-20.742-23.38-22.006-18.511-46.725-30.178-73.709-34.792-15.44-2.64-36.718-2.61-51.968.075Zm160.381 81.102c-4.297 5.895-6.471 10.317-8.494 17.276-2.486 8.552-1.481 15.432 4.141 28.343 4.483 10.295 4.607 10.849 4.172 18.653-.721 12.932-7.252 25.822-19.672 38.827-9.272 9.709-17.267 15.536-28.267 20.602-13.463 6.201-20.186 7.581-36.842 7.564-13.056-.014-15.695-.33-26.5-3.18-27.474-7.245-50.991-9.858-80.5-8.944-22.007.681-55.64 4.993-61.25 7.852-2.493 1.271-2.164 5.499.647 8.309 3.4 3.4 10.753 5.17 29.103 7.005 8.8.88 18.828 2.252 22.284 3.048 6.041 1.391 15.075 5.325 12.438 5.416-3.265.113-57.269-7.155-62.943-8.471-7.304-1.694-9.87-.959-10.894 3.117-.779 3.106 5.108 12.149 16.05 24.653 26.975 30.829 71.516 50.546 111.885 49.527 10.419-.263 11.18-.418 11.18-2.282 0-1.705-.589-1.966-4-1.768-8.332.483-30.432-1.842-40.36-4.246-19.864-4.81-39.63-14.13-55.357-26.101-9.234-7.029-24.566-22.83-30.206-31.129-2.707-3.984-4.679-7.487-4.382-7.784.297-.297 2.672-.062 5.28.522 4.03.903 5.96 2.306 12.882 9.363 9.815 10.005 16.817 15.865 26.143 21.878 23.32 15.036 49.079 23.009 79.5 24.608l12.5.657 1.7 8.702c.934 4.786 2.396 10.05 3.248 11.698 1.606 3.106 7.388 8.1 9.377 8.1.625 0 1.434 1.238 1.798 2.75 1.679 6.988 7.265 14.127 12.303 15.727 1.066.338 3.127 2.645 4.582 5.126 1.486 2.537 4.731 5.91 7.411 7.705a812.843 812.843 0 0 1 8.984 6.115c3.006 2.083 5.78 3.052 9.657 3.374 6.809.564 6.893-.186.972-8.663-5.557-7.956-9.057-17.032-11.043-28.634-.847-4.95-2.7-12.516-4.118-16.813-1.418-4.298-2.389-8.002-2.159-8.232.23-.231 5.456-2.891 11.613-5.913 37.331-18.321 64.068-48.949 77.197-88.43 4.811-14.465 6.859-25.916 7.622-42.612.618-13.537-.257-20-2.708-20-1.17 0-1.562 3.336-2.116 18-1.031 27.275-5.47 44.228-14.837 56.669-19.96 26.511-49.349 47.622-81.145 58.29l-10.054 3.373-6.766-5.666c-16.51-13.828-37.77-23.041-67.376-29.196-7.432-1.545-10.754-2.766-13.5-4.961-8.303-6.639-19.876-9.97-41.642-11.985-15.865-1.47-21.91-2.592-25.055-4.652-3.532-2.314-2.458-2.765 12.555-5.265 45.305-7.545 75.89-6.448 122 4.376 17.674 4.149 27.785 5.072 39 3.562 22.979-3.095 42.396-13.044 57.939-29.687 13.544-14.502 21.703-32.518 20.876-46.094-.327-5.375-1.324-8.714-4.855-16.264-4.104-8.772-4.444-10.119-4.452-17.581-.006-6.471.474-9.111 2.413-13.25 1.331-2.843 2.729-5.17 3.105-5.17.377 0 .95 2.843 1.275 6.317 1.046 11.211 5.99 21.195 13.361 26.988 2.494 1.96 3.981 2.196 13.816 2.196 8.728 0 12.553-.481 18.378-2.311 4.045-1.271 7.6-2.067 7.898-1.768 1.008 1.008-5.063 8.655-9.977 12.568-4.635 3.69-8.179 5.384-17.277 8.257-5.597 1.767-5.418 4.318.285 4.061 12.311-.554 28.626-13.352 32.859-25.775 2.443-7.169 1.357-7.446-11.835-3.017-9.388 3.152-12.766 3.813-19.883 3.891-7.793.085-8.889-.146-12.026-2.536-3.863-2.943-8.132-10.167-9.869-16.701-.633-2.382-1.462-8.645-1.841-13.92-.432-6.007-1.137-9.736-1.886-9.984-.658-.218-2.612 1.546-4.342 3.92ZM272.127 235.01c-10.805 15.776-25.186 29.696-41.741 40.405-9.294 6.01-26.118 14.022-27.079 12.893-2.008-2.356-8.181-11.587-7.904-11.817.176-.145 4.296-1.516 9.158-3.048 11.266-3.549 30.204-12.874 40.872-20.127 9.629-6.546 25.324-19.892 28.592-24.312 1.241-1.679 2.718-3.053 3.282-3.053.564 0-1.767 4.077-5.18 9.059Zm-213.264 1.396c30.425 21.631 63.969 30.946 99.237 27.557l12.926-1.243 4.848 3.284c8.851 5.996 18.458 16.842 23.491 26.519 5.009 9.631 7.095 15.96 8.875 26.928 1.611 9.925 3.624 15.931 8.143 24.297l3.942 7.296-3.802-2.033c-6.731-3.601-14.738-10.548-17.126-14.861-1.279-2.31-2.95-4.199-3.715-4.199-2.211 0-8.629-6.16-10.109-9.702-.743-1.779-1.351-4.272-1.351-5.542 0-1.739-1.048-2.794-4.25-4.282-5.767-2.678-8.166-6.744-10.219-17.316-2.528-13.016-5.769-18.165-13.975-22.205-3.6-1.772-7.203-2.919-8.095-2.576-2.477.95-1.297 3.889 1.905 4.746 3.459.925 10.634 5.751 10.634 7.153 0 1.499-26.054.15-34.981-1.811-27.27-5.991-50.959-18.373-70.519-36.861l-9-8.506 4.141-.049c3.166-.038 5.284.764 9 3.406Zm24.67.533c30.023 3.947 57.536 10.857 74.189 18.634l6 2.803-4 .73c-12.55 2.29-37.185.181-54-4.624-12.825-3.666-44.07-19.482-38.5-19.488.825-.001 8.165.874 16.31 1.945Z" clip-rule="evenodd"/>
</svg>
